<svg xmlns="http://www.w3.org/2000/svg" width="476.518" height="476.518" viewBox="0 0 476.518 476.518" fill="#989ba0"><path d="M276.62 38.115c-2.047-3.158-2.704-5.292-2.704-5.292l.975-.897s1.897.788 5.21 2.146c1.565.624 3.48 1.39 5.675 2.254 2.162.783 4.515 1.696 7.037 2.308 1.242.385 2.507.768 3.814.915.658.086 1.285.267 1.937.387.646.044 1.294.065 1.938.147 2.606.35 5 .067 7.627-.07 1.218-.448 2.572-.574 3.897-1.144 1.214-.717 2.8-1.133 3.928-2.052.597-.41 1.217-.837 1.882-1.26.69-.387 1.424-.694 2.157-1.487l4.64-3.895c.045-.06-.27.4-.12.185l.033-.033.08-.07.152-.13.305-.274.612-.547 1.217-1.067 2.296-2.18c1.444-1.487 3.26-2.647 4.717-4.08 1.434-1.485 3.36-2.393 4.894-3.832 1.64-1.292 3.557-2.26 5.406-3.513 3.885-1.828 8.425-3.185 12.49-2.615 1.02.11 2.01.268 2.983.448.942.262 1.827.586 2.703.914 1.793.592 3.338 1.44 4.794 2.276 2.91 1.68 5.22 3.628 7.07 5.51 1.836 1.89 3.217 3.728 4.21 5.33 1.043 1.57 1.645 2.956 2.07 3.903.35.975.535 1.5.535 1.5l-.975.908s-2.09-.706-5.297-2.047c-1.563-.622-3.46-1.404-5.635-2.28-2.1-.865-4.412-1.817-6.853-2.643-1.215-.45-2.472-.914-3.742-1.22-.645-.16-1.28-.412-1.927-.597-.645-.13-1.29-.296-1.937-.51-2.62-.853-5.33-1.695-8.682-2.045-1.54.203-3.378.137-4.98.805-1.54.782-3.31 1.384-4.548 2.774-1.247 1.34-2.67 2.512-3.544 4.22l-1.27 2.543-.585 1.28-.284.636-.14.328-.07.148-.034.077-.022.05c.126-.187-.196.295-.174.267l-2.5 5.516c-.822 1.78-2.705 3.787-4.242 5.554-1.56 1.926-3.65 3.032-5.51 4.542-1.946 1.368-4.323 2.156-6.5 3.146-4.63 1.323-9.468 1.56-13.54.47-2.078-.458-3.99-1.06-5.677-1.936-1.764-.745-3.285-1.674-4.72-2.572-2.85-1.887-5.108-3.885-6.893-5.844a33.44 33.44 0 0 1-4.178-5.353zM476.517 351.03v113.6H0v-113.6h32.46V223.42l91.47-64.177v64.177l91.455-64.177v64.177l91.475-64.177v126.143h31.56l17.14-223.14h52.313l15.002 223.14h35.196v65.653h18.447v-.01zm-327.143-49.055H77.46v66.387h71.915v-66.387zm123.918 0h-71.916v66.387h71.916v-66.387zm125.475 0h-71.914v66.387h71.914v-66.387z"/></svg>