<svg fill="#989ba0" xmlns="http://www.w3.org/2000/svg" viewBox="0 0 348.901 348.901"><path d="M290.78 124.956h-.094V35c0-19.3-15.7-35-35-35H93.216c-19.3 0-35 15.7-35 35v89.956h-.095c-11.027 0-20 8.972-20 20V328.9c0 11.03 8.973 20 20 20h232.66c11.028 0 20-8.97 20-20V144.957c0-11.028-8.972-20-20-20zM194.97 243.58l-.58 46.78c-.027 2.2-1.85 4-4.05 4h-31.967c-2.2 0-4-1.8-4-4l-.012-46.473c-8.582-6.226-14.17-16.33-14.17-27.744 0-18.92 15.34-34.26 34.26-34.26s34.26 15.338 34.26 34.26c0 11.225-5.398 21.188-13.74 27.437zm55.716-118.624H98.216V40h152.47v84.956z"/></svg>