<svg fill="#989ba0" xmlns="http://www.w3.org/2000/svg" viewBox="0 0 494.008 494.008"><path d="M467.377 154.756H334.89v-32.23c0-48.546-39.352-87.895-87.9-87.895-48.53 0-87.882 39.35-87.882 87.896v32.23H26.633C11.933 154.756 0 166.69 0 181.386v251.36c0 14.697 11.934 26.63 26.633 26.63h440.744c14.7 0 26.63-11.933 26.63-26.63v-251.36c0-14.697-11.93-26.63-26.63-26.63zm-36.5 119.387c0 6.816-5.534 12.348-12.352 12.348H290.408c-6.82 0-12.35-5.53-12.35-12.347 0-6.818 5.53-12.354 12.35-12.354h128.117c6.818 0 12.352 5.534 12.352 12.353zm-64.485-78.22c6.815 0 12.35 5.532 12.35 12.35 0 6.816-5.534 12.35-12.35 12.35H290.41c-6.82 0-12.35-5.533-12.35-12.35 0-6.817 5.528-12.35 12.35-12.35h75.982zM246.988 73.017c19.41 0 35.137 15.727 35.137 35.137 0 19.395-15.727 35.12-35.137 35.12-19.393 0-35.12-15.726-35.12-35.12 0-19.41 15.728-35.137 35.12-35.137zm-7.27 313.775c0 19.214-15.645 34.86-34.856 34.86H72.24c-19.22 0-34.865-15.646-34.865-34.86V227.343c0-19.212 15.646-34.858 34.865-34.858h132.62c19.212 0 34.858 15.646 34.858 34.858v159.45zm209.008 31.437h-75.98c-6.823 0-12.352-5.53-12.352-12.35 0-6.818 5.528-12.352 12.353-12.352h75.98c6.815 0 12.348 5.533 12.348 12.352 0 6.818-5.534 12.35-12.35 12.35zm0-65.868H290.408c-6.82 0-12.35-5.536-12.35-12.353 0-6.816 5.53-12.348 12.35-12.348h158.317c6.816 0 12.35 5.53 12.35 12.347 0 6.817-5.534 12.352-12.35 12.352z"/><path d="M204.86 208.95H72.24c-10.147 0-18.4 8.25-18.4 18.392v159.45c0 10.148 8.253 18.392 18.4 18.392h132.62c10.142 0 18.392-8.244 18.392-18.393V227.343c0-10.14-8.25-18.393-18.39-18.393zm-66.32 14.86c23.458 0 42.516 25.053 42.516 55.946 0 30.887-19.058 55.975-42.515 55.975-23.46 0-42.52-25.087-42.52-55.974 0-30.894 19.06-55.947 42.52-55.947zm61.62 162.53a6.773 6.773 0 0 1-5.21 2.44H82.144a6.785 6.785 0 0 1-5.21-2.44 6.77 6.77 0 0 1-1.48-5.566C78.283 364.9 86.87 351.376 98.84 341.97c.317-.237.595-.58.946-.868 10.757 9.984 24.17 16.018 38.758 16.018 14.566 0 27.98-6.033 38.786-16.018.29.29.595.63.947.87 11.917 9.403 20.487 22.93 23.35 38.802a6.795 6.795 0 0 1-1.465 5.566z"/></svg>