<svg xmlns="http://www.w3.org/2000/svg" viewBox="0 0 512 512" fill="#989ba0"><path d="M320.044 55.872c.62 5.867 4.97 8.62 7.552 10.26 4.31 2.732 14.4 9.132 14.4 40.534v64.02c0 5.89 3.52 10.262 9.408 10.262.34.3.832 1.152 1.216 2.005-.49 9.9-5.376 25.067-8.448 33.43-6.25 4.16-12.843 13.012-12.843 28.948 0 12.097-4.14 17.537-7.81 22.337-.895 1.195-1.706 2.283-2.388 3.285-3.264 4.907-1.94 11.52 2.965 14.805 4.864 3.243 11.5 1.963 14.784-2.944l1.6-2.197c4.566-5.973 12.182-15.98 12.182-35.285 0-7.55 2.26-10.666 2.58-10.986 3.33-.81 6.038-3.2 7.318-6.38 1.195-2.922 11.435-29.076 11.435-46.634 0-.875-.107-1.728-.32-2.58-1.152-4.694-4.437-11.52-10.347-15.532v-56.555c0-34.368-10.496-48.47-21.568-56.64C339.692 33.473 321.943 0 256.662 0c-66.09 0-106.667 62.123-106.667 106.667v56.555c-5.91 4.01-9.173 10.86-10.347 15.53-.213.833-.32 1.708-.32 2.582 0 17.557 10.26 43.712 11.435 46.635 1.28 3.178 3.157 5.29 6.485 6.122 1.173.576 3.413 3.69 3.413 11.243 0 20.267 15.212 42.795 31.553 57.77-2.24 13.974-12.65 50.817-34.9 60.118l-94.678 31.552c-24.34 8.107-42.58 27.82-48.832 52.736L.983 498.753a10.643 10.643 0 0 0 7.764 12.928c.875.213 1.728.32 2.58.32 4.8 0 9.153-3.22 10.326-8.107l12.82-51.243c4.438-17.792 17.494-31.893 34.88-37.675l95.404-31.83c36.928-15.38 49.237-70.954 49.237-84.5 0-3.18-1.43-6.187-3.883-8.213-13.972-11.563-28.116-30.763-28.116-45.12 0-15.936-6.592-24.768-12.843-28.95-3.05-8.34-7.978-23.572-8.447-33.492.277-.81.47-1.536-.043-1.536 5.888 0 10.667-4.78 10.667-10.667v-64c0-34.795 33.26-85.333 85.333-85.333 49.536 0 62.336 21.93 63.83 30.38-.404 1.45-.596 2.9-.446 4.158zM500.673 362.22h-10.667V351.55c0-41.173-33.493-74.667-74.667-74.667s-74.668 33.493-74.668 74.667v10.667h-10.667c-5.888 0-10.667 4.778-10.667 10.666v128c0 5.888 4.78 10.667 10.667 10.667h170.667c5.888 0 10.667-4.78 10.667-10.667v-128c0-5.89-4.78-10.667-10.667-10.667zM362.007 351.55c0-29.397 23.915-53.333 53.333-53.333s53.333 23.935 53.333 53.332v10.667H362.007V351.55zm128 138.667H340.673V383.55h149.333V490.22z"/><path d="M404.673 444.288v13.93c0 5.89 4.78 10.668 10.667 10.668s10.667-4.78 10.667-10.667v-13.932c6.272-3.712 10.667-10.26 10.667-18.07 0-11.775-9.557-21.332-21.333-21.332s-21.332 9.557-21.332 21.333c0 7.807 4.415 14.356 10.665 18.068z"/></svg>